<svg width="200" height="200" viewBox="0 0 200 200" fill="none" xmlns="http://www.w3.org/2000/svg">
<path d="M36.1488 178.04H21.9597V163.851H36.1488V178.04Z" fill="#F0F0F0"/>
<path fill-rule="evenodd" clip-rule="evenodd" d="M45.6078 187.5H12.5V154.392H45.6078V187.5ZM17.2295 182.771H40.8783V159.122H17.2295V182.771Z" fill="#F0F0F0"/>
<path d="M55.0674 178.04H59.7977V173.311H83.4457V182.771H78.7163V178.04H73.9868V182.771H69.2566V187.5H64.5271V178.04H59.7977V182.771H50.338V173.311H55.0674V178.04Z" fill="#F0F0F0"/>
<path d="M78.7163 187.5H73.9868V182.771H78.7163V187.5Z" fill="#F0F0F0"/>
<path d="M88.176 187.5H83.4457V182.771H88.176V187.5Z" fill="#F0F0F0"/>
<path d="M102.365 187.5H92.9054V182.771H97.6349V178.04H102.365V187.5Z" fill="#F0F0F0"/>
<path d="M135.473 187.5H130.743V178.04H135.473V187.5Z" fill="#F0F0F0"/>
<path d="M144.933 187.5H140.202V182.771H144.933V187.5Z" fill="#F0F0F0"/>
<path d="M159.122 159.122H154.392V154.392H159.122V159.122Z" fill="#F0F0F0"/>
<path fill-rule="evenodd" clip-rule="evenodd" d="M173.311 140.202H178.04V149.662H173.311V144.933H168.581V154.392H178.04V168.581H168.581V173.311H154.392V178.04H159.122V187.5H149.662V182.771H144.933V173.311H140.202V178.04H135.473V168.581H130.743V178.04H126.013V182.771H111.824V178.04H116.554V173.311H121.284V168.581H126.013V159.122H130.743V163.851H135.473V159.122H140.202V168.581H144.933V154.392H140.202V149.662H144.933V144.933H159.122V140.202H163.851V144.933H168.581V140.202H163.851V135.473H173.311V140.202ZM149.662 163.851H163.851V149.662H149.662V163.851Z" fill="#F0F0F0"/>
<path d="M182.771 178.04H178.04V182.771H168.581V173.311H173.311V178.04H178.04V168.581H182.771V163.851H187.5V187.5H182.771V178.04Z" fill="#F0F0F0"/>
<path d="M92.9054 173.311H97.6349V178.04H92.9054V182.771H88.176V168.581H92.9054V173.311Z" fill="#F0F0F0"/>
<path d="M111.824 154.392H107.095V149.662H102.365V159.122H107.095V163.851H111.824V168.581H107.095V173.311H97.6349V168.581H102.365V163.851H92.9054V154.392H97.6349V144.933H88.176V140.202H107.095V135.473H111.824V154.392Z" fill="#F0F0F0"/>
<path d="M116.554 173.311H111.824V168.581H116.554V173.311Z" fill="#F0F0F0"/>
<path d="M64.5271 168.581H59.7977V163.851H64.5271V168.581Z" fill="#F0F0F0"/>
<path d="M73.9868 154.392H78.7163V149.662H83.4457V159.122H88.176V163.851H83.4457V168.581H69.2566V163.851H73.9868V159.122H69.2566V149.662H73.9868V154.392Z" fill="#F0F0F0"/>
<path d="M121.284 168.581H116.554V163.851H121.284V168.581Z" fill="#F0F0F0"/>
<path d="M116.554 163.851H111.824V159.122H116.554V163.851Z" fill="#F0F0F0"/>
<path d="M59.7977 159.122H55.0674V154.392H59.7977V159.122Z" fill="#F0F0F0"/>
<path d="M126.013 159.122H116.554V154.392H126.013V159.122Z" fill="#F0F0F0"/>
<path d="M64.5271 154.392H59.7977V149.662H64.5271V154.392Z" fill="#F0F0F0"/>
<path d="M126.013 144.933H130.743V149.662H135.473V154.392H126.013V149.662H121.284V140.202H126.013V144.933Z" fill="#F0F0F0"/>
<path d="M187.5 154.392H182.771V149.662H187.5V154.392Z" fill="#F0F0F0"/>
<path d="M21.9597 149.662H17.2295V144.933H21.9597V149.662Z" fill="#F0F0F0"/>
<path fill-rule="evenodd" clip-rule="evenodd" d="M59.7977 116.554H64.5271V121.284H73.9868V126.013H69.2566V130.743H73.9868V126.013H78.7163V135.473H88.176V140.202H78.7163V144.933H73.9868V140.202H69.2566V144.933H59.7977V149.662H40.8783V144.933H45.6078V140.202H55.0674V135.473H50.338V130.743H59.7977V126.013H55.0674V116.554H50.338V111.824H59.7977V116.554ZM59.7977 140.202H64.5271V135.473H59.7977V140.202Z" fill="#F0F0F0"/>
<path d="M88.176 149.662H83.4457V144.933H88.176V149.662Z" fill="#F0F0F0"/>
<path d="M21.9597 130.743H31.4186V135.473H36.1488V144.933H31.4186V140.202H21.9597V135.473H12.5V126.013H17.2295V121.284H21.9597V130.743Z" fill="#F0F0F0"/>
<path d="M144.933 144.933H140.202V135.473H144.933V144.933Z" fill="#F0F0F0"/>
<path d="M45.6078 140.202H40.8783V135.473H45.6078V140.202Z" fill="#F0F0F0"/>
<path d="M135.473 140.202H126.013V135.473H135.473V140.202Z" fill="#F0F0F0"/>
<path d="M159.122 140.202H149.662V135.473H159.122V140.202Z" fill="#F0F0F0"/>
<path d="M50.338 130.743H40.8783V135.473H36.1488V126.013H50.338V130.743Z" fill="#F0F0F0"/>
<path d="M92.9054 135.473H88.176V130.743H92.9054V135.473Z" fill="#F0F0F0"/>
<path fill-rule="evenodd" clip-rule="evenodd" d="M187.5 64.5271H182.771V69.2566H187.5V83.4457H182.771V92.9054H178.04V88.176H173.311V92.9054H178.04V97.6349H173.311V102.365H168.581V107.095H163.851V102.365H159.122V107.095H163.851V111.824H159.122V116.554H154.392V102.365H149.662V116.554H144.933V121.284H126.013V126.013H130.743V130.743H121.284V126.013H116.554V130.743H121.284V135.473H111.824V130.743H92.9054V126.013H97.6349V121.284H92.9054V126.013H88.176V116.554H92.9054V111.824H83.4457V116.554H78.7163V121.284H73.9868V111.824H69.2566V102.365H59.7977V97.6349H64.5271V92.9054H73.9868V97.6349H83.4457V88.176H88.176V97.6349H92.9054V102.365H88.176V107.095H97.6349V116.554H102.365V126.013H107.095V121.284H121.284V116.554H135.473V111.824H144.933V107.095H130.743V102.365H126.013V97.6349H140.202V88.176H144.933V78.7163H149.662V83.4457H154.392V78.7163H159.122V69.2566H163.851V78.7163H168.581V83.4457H163.851V88.176H159.122V92.9054H144.933V102.365H149.662V97.6349H163.851V88.176H168.581V83.4457H178.04V78.7163H173.311V73.9868H178.04V59.7977H182.771V55.0674H187.5V64.5271ZM73.9868 107.095H78.7163V102.365H73.9868V107.095Z" fill="#F0F0F0"/>
<path d="M140.202 135.473H135.473V130.743H140.202V135.473Z" fill="#F0F0F0"/>
<path d="M154.392 126.013H159.122V130.743H149.662V135.473H144.933V121.284H154.392V126.013Z" fill="#F0F0F0"/>
<path d="M187.5 135.473H178.04V130.743H187.5V135.473Z" fill="#F0F0F0"/>
<path d="M88.176 130.743H83.4457V126.013H88.176V130.743Z" fill="#F0F0F0"/>
<path d="M187.5 111.824H178.04V116.554H182.771V121.284H178.04V130.743H163.851V126.013H173.311V121.284H163.851V126.013H159.122V116.554H168.581V107.095H173.311V102.365H178.04V107.095H182.771V102.365H178.04V97.6349H182.771V92.9054H187.5V111.824Z" fill="#F0F0F0"/>
<path d="M26.6891 92.9054H17.2295V97.6349H26.6891V107.095H31.4186V102.365H36.1488V111.824H21.9597V116.554H17.2295V121.284H12.5V111.824H17.2295V102.365H12.5V88.176H26.6891V92.9054Z" fill="#F0F0F0"/>
<path d="M50.338 121.284H36.1488V116.554H50.338V121.284Z" fill="#F0F0F0"/>
<path d="M116.554 116.554H107.095V111.824H111.824V107.095H116.554V116.554Z" fill="#F0F0F0"/>
<path d="M45.6078 111.824H40.8783V107.095H45.6078V111.824Z" fill="#F0F0F0"/>
<path d="M64.5271 111.824H59.7977V107.095H64.5271V111.824Z" fill="#F0F0F0"/>
<path d="M130.743 111.824H121.284V107.095H130.743V111.824Z" fill="#F0F0F0"/>
<path d="M55.0674 107.095H45.6078V102.365H55.0674V107.095Z" fill="#F0F0F0"/>
<path d="M111.824 107.095H97.6349V102.365H111.824V107.095Z" fill="#F0F0F0"/>
<path d="M121.284 107.095H116.554V102.365H121.284V107.095Z" fill="#F0F0F0"/>
<path d="M45.6078 102.365H36.1488V97.6349H45.6078V102.365Z" fill="#F0F0F0"/>
<path d="M116.554 102.365H111.824V97.6349H116.554V102.365Z" fill="#F0F0F0"/>
<path d="M31.4186 97.6349H26.6891V92.9054H31.4186V97.6349Z" fill="#F0F0F0"/>
<path d="M50.338 59.7977H55.0674V73.9868H59.7977V78.7163H55.0674V83.4457H50.338V88.176H55.0674V97.6349H45.6078V92.9054H31.4186V88.176H26.6891V83.4457H36.1488V88.176H45.6078V83.4457H36.1488V78.7163H45.6078V73.9868H40.8783V69.2566H50.338V64.5271H40.8783V59.7977H45.6078V55.0674H50.338V59.7977Z" fill="#F0F0F0"/>
<path d="M97.6349 97.6349H92.9054V92.9054H97.6349V97.6349Z" fill="#F0F0F0"/>
<path d="M107.095 97.6349H102.365V88.176H107.095V97.6349Z" fill="#F0F0F0"/>
<path d="M64.5271 92.9054H59.7977V88.176H64.5271V92.9054Z" fill="#F0F0F0"/>
<path d="M116.554 92.9054H111.824V88.176H116.554V92.9054Z" fill="#F0F0F0"/>
<path d="M130.743 73.9868H135.473V69.2566H144.933V78.7163H140.202V73.9868H135.473V78.7163H140.202V88.176H135.473V92.9054H121.284V88.176H130.743V83.4457H121.284V78.7163H126.013V73.9868H121.284V69.2566H130.743V73.9868Z" fill="#F0F0F0"/>
<path d="M59.7977 88.176H55.0674V83.4457H59.7977V88.176Z" fill="#F0F0F0"/>
<path d="M69.2566 88.176H64.5271V78.7163H69.2566V88.176Z" fill="#F0F0F0"/>
<path d="M78.7163 88.176H73.9868V83.4457H78.7163V88.176Z" fill="#F0F0F0"/>
<path d="M121.284 88.176H116.554V83.4457H121.284V88.176Z" fill="#F0F0F0"/>
<path d="M31.4186 69.2566H36.1488V73.9868H26.6891V83.4457H12.5V78.7163H21.9597V69.2566H26.6891V64.5271H31.4186V69.2566Z" fill="#F0F0F0"/>
<path d="M78.7163 59.7977H73.9868V64.5271H78.7163V59.7977H83.4457V69.2566H88.176V78.7163H83.4457V83.4457H78.7163V78.7163H73.9868V73.9868H78.7163V69.2566H73.9868V73.9868H69.2566V69.2566H59.7977V64.5271H64.5271V59.7977H69.2566V55.0674H78.7163V59.7977Z" fill="#F0F0F0"/>
<path fill-rule="evenodd" clip-rule="evenodd" d="M107.095 64.5271H102.365V69.2566H111.824V78.7163H116.554V83.4457H88.176V78.7163H92.9054V69.2566H97.6349V59.7977H107.095V64.5271ZM97.6349 78.7163H102.365V73.9868H97.6349V78.7163Z" fill="#F0F0F0"/>
<path d="M121.284 78.7163H116.554V73.9868H121.284V78.7163Z" fill="#F0F0F0"/>
<path d="M163.851 55.0674H168.581V50.338H182.771V55.0674H178.04V59.7977H173.311V55.0674H168.581V59.7977H159.122V69.2566H154.392V78.7163H149.662V69.2566H144.933V59.7977H154.392V55.0674H159.122V50.338H163.851V55.0674Z" fill="#F0F0F0"/>
<path d="M21.9597 69.2566H17.2295V73.9868H12.5V59.7977H21.9597V69.2566Z" fill="#F0F0F0"/>
<path d="M116.554 64.5271H121.284V69.2566H111.824V59.7977H116.554V64.5271Z" fill="#F0F0F0"/>
<path d="M173.311 69.2566H163.851V64.5271H168.581V59.7977H173.311V69.2566Z" fill="#F0F0F0"/>
<path d="M92.9054 64.5271H88.176V59.7977H92.9054V64.5271Z" fill="#F0F0F0"/>
<path fill-rule="evenodd" clip-rule="evenodd" d="M97.6349 21.9597H107.095V17.2295H102.365V12.5H121.284V17.2295H140.202V21.9597H144.933V31.4186H149.662V45.6078H144.933V40.8783H140.202V26.6891H135.473V21.9597H126.013V31.4186H130.743V26.6891H135.473V36.1488H126.013V40.8783H121.284V36.1488H116.554V40.8783H111.824V50.338H121.284V45.6078H126.013V40.8783H130.743V50.338H126.013V55.0674H130.743V50.338H135.473V40.8783H140.202V55.0674H144.933V59.7977H140.202V64.5271H135.473V59.7977H121.284V55.0674H111.824V59.7977H107.095V55.0674H102.365V50.338H107.095V40.8783H102.365V50.338H97.6349V59.7977H92.9054V55.0674H88.176V59.7977H83.4457V55.0674H78.7163V50.338H88.176V40.8783H83.4457V36.1488H88.176V31.4186H78.7163V36.1488H73.9868V31.4186H69.2566V26.6891H73.9868V21.9597H78.7163V26.6891H83.4457V17.2295H92.9054V12.5H97.6349V21.9597ZM107.095 31.4186H97.6349V26.6891H92.9054V31.4186H97.6349V36.1488H92.9054V45.6078H97.6349V36.1488H111.824V31.4186H116.554V26.6891H121.284V21.9597H116.554V26.6891H111.824V21.9597H107.095V31.4186ZM88.176 26.6891H92.9054V21.9597H88.176V26.6891Z" fill="#F0F0F0"/>
<path d="M69.2566 55.0674H59.7977V59.7977H55.0674V50.338H69.2566V55.0674Z" fill="#F0F0F0"/>
<path d="M26.6891 55.0674H17.2295V50.338H26.6891V55.0674Z" fill="#F0F0F0"/>
<path d="M45.6078 55.0674H40.8783V50.338H45.6078V55.0674Z" fill="#F0F0F0"/>
<path d="M154.392 55.0674H144.933V50.338H154.392V55.0674Z" fill="#F0F0F0"/>
<path d="M78.7163 50.338H73.9868V45.6078H78.7163V50.338Z" fill="#F0F0F0"/>
<path d="M36.1488 36.1488H21.9597V21.9597H36.1488V36.1488Z" fill="#F0F0F0"/>
<path fill-rule="evenodd" clip-rule="evenodd" d="M45.6078 45.6078H12.5V12.5H45.6078V45.6078ZM17.2295 40.8783H40.8783V17.2295H17.2295V40.8783Z" fill="#F0F0F0"/>
<path d="M59.7977 40.8783H55.0674V45.6078H50.338V36.1488H55.0674V31.4186H59.7977V40.8783Z" fill="#F0F0F0"/>
<path d="M64.5271 45.6078H59.7977V40.8783H64.5271V45.6078Z" fill="#F0F0F0"/>
<path d="M73.9868 45.6078H69.2566V40.8783H64.5271V36.1488H73.9868V45.6078Z" fill="#F0F0F0"/>
<path d="M83.4457 45.6078H78.7163V40.8783H83.4457V45.6078Z" fill="#F0F0F0"/>
<path d="M121.284 45.6078H116.554V40.8783H121.284V45.6078Z" fill="#F0F0F0"/>
<path d="M178.04 36.1488H163.851V21.9597H178.04V36.1488Z" fill="#F0F0F0"/>
<path fill-rule="evenodd" clip-rule="evenodd" d="M187.5 45.6078H154.392V12.5H187.5V45.6078ZM159.122 40.8783H182.771V17.2295H159.122V40.8783Z" fill="#F0F0F0"/>
<path d="M59.7977 21.9597H64.5271V26.6891H55.0674V31.4186H50.338V17.2295H59.7977V21.9597Z" fill="#F0F0F0"/>
<path d="M78.7163 17.2295H73.9868V21.9597H69.2566V12.5H78.7163V17.2295Z" fill="#F0F0F0"/>
<path d="M144.933 17.2295H140.202V12.5H144.933V17.2295Z" fill="#F0F0F0"/>
</svg>
